<?xml version="1.0" standalone="no"?><!DOCTYPE svg PUBLIC "-//W3C//DTD SVG 1.1//EN" "http://www.w3.org/Graphics/SVG/1.1/DTD/svg11.dtd"><svg t="1691061136059" class="icon" viewBox="0 0 1024 1024" version="1.1" xmlns="http://www.w3.org/2000/svg" p-id="849" xmlns:xlink="http://www.w3.org/1999/xlink" width="200" height="200"><path d="M149.333333 170.666667c-6.613333 0-13.12 0.277333-19.584 0.810666l-3.498666-42.538666C133.866667 128.32 141.568 128 149.333333 128c153.173333 0 277.333333 124.16 277.333334 277.333333v36.202667l59.648 89.472C505.194667 559.36 484.885333 597.333333 450.773333 597.333333H426.666667v42.666667a21.333333 21.333333 0 0 1-21.333334 21.333333h-21.333333a42.666667 42.666667 0 0 0-42.666667 42.666667h64a21.333333 21.333333 0 0 1 21.333334 21.333333v64c0 30.890667-16.426667 57.92-40.896 72.874667-15.253333 9.301333-31.658667 10.538667-46.08 8.64-14.208-1.877333-27.797333-6.912-38.954667-11.712L213.333333 821.696V917.333333H170.666667v-128a21.333333 21.333333 0 0 1 29.738666-19.626666l117.12 50.218666c10.090667 4.309333 19.392 7.530667 27.733334 8.618667 8.042667 1.066667 13.781333-0.021333 18.261333-2.773333 12.330667-7.509333 20.48-21.034667 20.48-36.437334v-42.666666h-64a21.333333 21.333333 0 0 1-21.333333-21.333334v-21.333333a85.333333 85.333333 0 0 1 85.333333-85.333333v-42.666667a21.333333 21.333333 0 0 1 21.333333-21.333333h45.461334l-63.210667-94.826667A21.333333 21.333333 0 0 1 384 448v-42.666667c0-129.6-105.066667-234.666667-234.666667-234.666666z" fill="#1296db" p-id="850"></path><path d="M783.36 320.725333a21.333333 21.333333 0 0 0-26.090667 15.061334l-10.517333 39.04a21.333333 21.333333 0 0 0-29.269333 13.866666L666.602667 576H597.333333a21.333333 21.333333 0 0 0-21.333333 21.333333h-42.666667a21.333333 21.333333 0 0 0-21.333333 21.333334v106.666666a21.333333 21.333333 0 0 0 21.333333 21.333334h42.666667a21.333333 21.333333 0 0 0 21.333333 21.333333h132.352a106.666667 106.666667 0 0 0 102.826667-78.357333l62.72-227.797334a21.333333 21.333333 0 0 0-11.754667-25.109333l-6.272-2.816 16.576-61.610667a21.333333 21.333333 0 0 0-15.104-26.154666l-95.317333-25.429334zM618.666667 725.333333h111.018666a64 64 0 0 0 61.696-47.018666l57.173334-207.701334-97.109334-44.16-47.957333 176.469334a21.333333 21.333333 0 0 1-20.586667 15.744H618.666667v106.666666z m166.826666-330.282666l51.669334 23.509333 9.877333-36.693333-54.101333-14.421334-7.445334 27.605334zM554.666667 640h21.333333v64h-21.333333v-64z" fill="#1296db" p-id="851"></path><path d="M309.333333 490.666667a32 32 0 1 0 0-64 32 32 0 0 0 0 64z" fill="#1296db" p-id="852"></path></svg>